<svg width="189" height="42" viewBox="0 0 189 42" fill="none" xmlns="http://www.w3.org/2000/svg">
<path d="M185.607 11.7841C185.465 11.6021 185.351 11.4762 185.265 11.4062C185.18 11.3362 185.066 11.2802 184.923 11.2243C185.351 11.1683 185.678 11.0143 185.906 10.7624C186.134 10.5105 186.262 10.2026 186.262 9.85272C186.262 9.6008 186.205 9.36288 186.077 9.15295C185.949 8.94302 185.792 8.78907 185.621 8.67711C185.436 8.57914 185.18 8.46718 184.838 8.43919C184.724 8.43919 184.197 8.3972 183.256 8.3972H182.245V13.4355H183.385V11.4762H183.513C183.798 11.4762 184.026 11.4902 184.211 11.6301C184.396 11.7701 184.624 12.106 184.909 12.6378L185.322 13.4355H186.561L185.977 12.4139C185.778 12.064 185.65 11.8401 185.607 11.7841ZM184.738 10.5525C184.596 10.5945 184.239 10.6365 183.655 10.6365H183.37V9.23692H183.655C184.225 9.23692 184.581 9.27891 184.738 9.32089C184.88 9.36288 184.994 9.44685 185.08 9.55881C185.165 9.65678 185.194 9.78274 185.194 9.92269C185.194 10.0626 185.151 10.2026 185.066 10.3146C184.994 10.4125 184.88 10.4965 184.738 10.5525ZM188.399 8.59314C187.986 7.85138 187.402 7.29157 186.661 6.8997C185.92 6.50783 185.165 6.3119 184.353 6.3119C183.556 6.3119 182.786 6.50783 182.046 6.8997C181.305 7.29157 180.735 7.86538 180.308 8.59314C179.88 9.33489 179.681 10.1046 179.681 10.9024C179.681 11.7001 179.88 12.4698 180.293 13.1976C180.706 13.9254 181.276 14.4852 182.017 14.891C182.758 15.2969 183.527 15.5068 184.339 15.5068C185.151 15.5068 185.92 15.2969 186.661 14.891C187.402 14.4852 187.972 13.9114 188.385 13.1976C188.798 12.4698 188.997 11.7001 188.997 10.9024C189.026 10.1046 188.812 9.33489 188.399 8.59314ZM187.616 12.7498C187.288 13.3376 186.818 13.7994 186.234 14.1213C185.635 14.4432 185.023 14.6111 184.368 14.6111C183.712 14.6111 183.1 14.4432 182.501 14.1213C181.903 13.7854 181.447 13.3376 181.12 12.7498C180.792 12.1619 180.621 11.5462 180.621 10.9164C180.621 10.2586 180.792 9.64279 181.134 9.05498C181.476 8.46718 181.932 8.00533 182.53 7.69743C183.114 7.37554 183.741 7.22159 184.382 7.22159C185.023 7.22159 185.635 7.37554 186.234 7.69743C186.832 8.01933 187.288 8.46718 187.63 9.05498C187.972 9.64279 188.143 10.2726 188.143 10.9164C188.114 11.5462 187.958 12.1619 187.616 12.7498ZM58.735 6.3119C48.7487 6.3119 40.6429 14.3172 40.6429 24.1559C40.6429 33.9947 48.763 42 58.735 42C68.7069 42 76.827 33.9947 76.827 24.1559C76.8412 14.3032 68.7212 6.3119 58.735 6.3119ZM58.735 33.071C53.749 33.071 49.6889 29.0683 49.6889 24.1559C49.6889 19.2296 53.749 15.2409 58.735 15.2409C63.7209 15.2409 67.781 19.2436 67.781 24.1559C67.7952 29.0683 63.7209 33.071 58.735 33.071ZM79.4054 41.0483H88.4514V1.35755H79.4054V41.0483ZM109.122 6.3119C99.1357 6.3119 91.0299 14.3172 91.0299 24.1559C91.0299 33.9807 99.1499 41.986 109.122 41.986C119.108 41.986 127.214 33.9807 127.214 24.142C127.228 14.3032 119.108 6.3119 109.122 6.3119ZM109.122 33.071C104.136 33.071 100.076 29.0683 100.076 24.1559C100.076 19.2296 104.136 15.2409 109.122 15.2409C114.108 15.2409 118.168 19.2436 118.168 24.1559C118.168 29.0683 114.122 33.071 109.122 33.071ZM138.838 8.04732H129.792V41.0483H138.838V25.0377C138.838 20.1113 142.898 16.1226 147.884 16.1226V7.1936C144.594 7.1936 141.502 8.45318 138.838 10.4965V8.04732ZM150.278 7.15162V16.0666H162.387L147.913 41.0483H177.43V32.1333H163.512L177.986 7.15162H150.278ZM21.2973 8.91503C25.8274 8.91503 29.7735 11.3502 31.8961 14.961L39.7312 10.4965C36.0416 4.22659 29.1752 0 21.2973 0C9.53036 0 0 9.40487 0 20.993C0 32.5811 9.53036 41.986 21.2973 41.986C29.1752 41.986 36.0416 37.7594 39.7312 31.4755L31.8961 27.011C29.7735 30.6218 25.8274 33.057 21.2973 33.057C14.5448 33.057 9.04601 27.6408 9.04601 20.979C9.04601 14.3312 14.5448 8.91503 21.2973 8.91503Z" fill="#18181B"/>
</svg>
