<svg width="85" height="76" viewBox="0 0 85 76" fill="none" xmlns="http://www.w3.org/2000/svg">
<path d="M1.79857 33.3651C2.44834 33.517 2.9758 33.4714 3.39624 33.2587C4.01544 32.9777 4.5429 32.2864 4.83339 31.0937C5.15445 29.7642 4.9557 28.8982 4.4053 28.3816C4.16833 28.1385 3.84726 28.0094 3.64851 27.941L3.37331 29.0729C3.54149 29.1337 3.68673 29.2172 3.79375 29.3616C4.0613 29.7338 4.07659 30.1972 3.90842 30.8809C3.77082 31.4659 3.46504 32.0205 2.99874 32.218C2.77705 32.3091 2.48656 32.3243 2.08141 32.2256C1.71448 32.142 1.45457 31.9977 1.29404 31.8154C0.995908 31.4811 0.904175 30.9341 1.07235 30.2124C1.24817 29.4755 1.56159 29.0653 1.8903 28.9134C2.04319 28.8374 2.2343 28.8146 2.39483 28.8374L2.67003 27.7055C2.49421 27.6675 2.1655 27.6523 1.88266 27.7283C1.17173 27.9486 0.483734 28.5411 0.139737 29.9769C-0.158394 31.2152 0.0480045 32.0433 0.499023 32.6054C0.766576 32.9701 1.20995 33.2208 1.79857 33.3651ZM6.53808 25.8367L4.90983 25.0238L5.72778 23.4133L7.91407 23.1246L8.4874 21.9927L6.07942 22.3422C6.1788 22.0231 6.11764 21.6888 5.96475 21.4457C5.85009 21.2482 5.6284 21.0659 5.33027 20.914C5.00156 20.7468 4.72637 20.7012 4.46646 20.7544C4.07659 20.8304 3.68673 21.1495 3.36567 21.78L1.86737 24.7275L6.03355 26.8167L6.53808 25.8367ZM3.19749 24.1578L4.13775 22.3042C4.29064 22.0079 4.42823 21.8863 4.60406 21.8636C4.70343 21.8408 4.8181 21.8863 4.91747 21.9395C5.00156 21.9851 5.10858 22.0535 5.1621 22.1446C5.23854 22.2586 5.22325 22.4409 5.08565 22.7068L4.11481 24.6212L3.19749 24.1578ZM12.279 17.1384L11.5452 16.561L9.3665 19.2806L8.63264 18.7033L10.7196 16.0976L9.9857 15.5202L7.89878 18.1259L7.18021 17.5486L9.32828 14.8593L8.59442 14.2744L5.75836 17.8221L9.41237 20.7088L12.279 17.1384ZM14.0066 15.4367L13.7314 14.3275L15.8184 12.5499L16.8656 13.0057L17.7906 12.2156L12.9594 10.2253L11.935 11.0913L13.097 16.2115L14.0066 15.4367ZM13.4104 11.5319L14.8781 12.1625L13.5021 13.3324L13.1275 11.7674L12.9976 11.3268L13.4104 11.5319ZM17.8594 7.83989L19.8087 11.0001L20.7872 10.4076L18.8379 7.24734L20.5808 6.18379L20.0916 5.39372L15.6273 8.11337L16.1165 8.90344L17.8594 7.83989ZM28.164 6.94346L27.8048 6.07743L24.5712 7.40687L24.2119 6.54843L27.3079 5.27217L26.9486 4.41373L23.8526 5.68999L23.501 4.84675L26.6963 3.53251L26.337 2.66647L22.1326 4.40614L23.9138 8.69073L28.164 6.94346ZM32.8195 5.70519C33.8515 5.46209 34.3713 4.99869 34.5471 4.38335C34.6694 3.98831 34.6388 3.56289 34.4706 2.86399C34.3178 2.21067 34.1496 1.83083 33.8515 1.54215C33.4234 1.10153 32.7507 0.949599 31.711 1.1927L28.8597 1.86121L29.9299 6.3813L32.8195 5.70519ZM31.7645 2.1195C32.3608 1.98276 32.7277 2.03594 33.0029 2.30183C33.1711 2.44617 33.2934 2.75763 33.3928 3.13747C33.4922 3.5553 33.538 3.91994 33.4463 4.14785C33.324 4.4973 33.0106 4.71761 32.3837 4.86194L30.809 5.23419L30.1592 2.49175L31.7645 2.1195ZM41.3965 0.972389L41.45 4.67962L42.5966 4.66443L42.5431 0.949599L44.5918 0.919211L44.5765 0L39.3401 0.0683711L39.3554 0.995179L41.3965 0.972389ZM48.6586 5.1962C49.7594 5.35574 50.6079 5.2038 51.143 4.7404C51.5406 4.40614 51.8081 3.91235 51.9075 3.22104C52.0069 2.55252 51.9304 2.02834 51.6093 1.58013C51.1736 0.972389 50.4627 0.600146 49.3543 0.440614C48.2382 0.281081 47.4814 0.448211 46.8545 0.942002C46.4341 1.28386 46.1971 1.76245 46.1054 2.38539C46.006 3.0843 46.1283 3.63886 46.4417 4.07948C46.8545 4.64923 47.5808 5.03667 48.6586 5.1962ZM47.2444 2.56771C47.3056 2.15749 47.4661 1.80804 47.7107 1.61052C48.0241 1.36742 48.5134 1.24587 49.2167 1.35223C49.9582 1.45858 50.3251 1.68649 50.6079 2.02075C50.8067 2.26384 50.8373 2.67407 50.7761 3.0767C50.715 3.47173 50.5774 3.84398 50.3022 4.04149C49.9429 4.29978 49.5071 4.39854 48.7886 4.29219C48.1388 4.19343 47.7566 3.99591 47.4737 3.68444C47.2291 3.40336 47.1756 3.00833 47.2444 2.56771ZM58.688 7.91585C59.9647 8.44003 60.8514 8.37166 61.4477 7.90826C61.7305 7.71074 61.9063 7.42206 62.0057 7.23214L60.9202 6.79153C60.8361 6.95106 60.7291 7.08021 60.5686 7.15617C60.1558 7.36129 59.6971 7.30811 59.0397 7.03463C58.4816 6.80672 57.9771 6.41929 57.8472 5.93309C57.7937 5.69759 57.8166 5.40891 57.9771 5.02907C58.1224 4.68722 58.2982 4.45172 58.5046 4.31498C58.8792 4.07188 59.4372 4.06428 60.1328 4.34536C60.8361 4.63404 61.203 4.99869 61.3024 5.34814C61.3483 5.50767 61.3483 5.69759 61.3024 5.84953L62.3879 6.29014C62.4491 6.12301 62.5179 5.80395 62.4873 5.51527C62.3803 4.77838 61.891 4.0187 60.5151 3.45654C59.3302 2.97034 58.474 3.05391 57.8395 3.41096C57.442 3.62367 57.1286 4.0187 56.8916 4.58086C56.6394 5.1962 56.6088 5.72038 56.754 6.16859C56.9375 6.82192 57.5414 7.44485 58.688 7.91585ZM64.7348 8.78189L66.2636 9.74668L66.3401 11.9346L67.4179 12.6107L67.3033 10.1949C67.6167 10.324 67.953 10.3012 68.2129 10.1721C68.4193 10.0809 68.6257 9.87582 68.8092 9.59474C69.008 9.28328 69.0768 9.01739 69.0538 8.7515C69.0156 8.35647 68.7328 7.93864 68.1365 7.5664L65.331 5.79635L62.8237 9.7087L63.7639 10.3012L64.7348 8.78189ZM65.7744 7.16377L67.5326 8.2729C67.8154 8.44763 67.9225 8.59956 67.9301 8.78189C67.9378 8.88065 67.8842 8.9946 67.8231 9.08576C67.7696 9.16932 67.6931 9.26048 67.5861 9.30607C67.4638 9.36684 67.288 9.33645 67.0281 9.17692L65.2087 8.02981L65.7744 7.16377ZM72.0275 16.7433L72.662 16.0596L70.0935 13.7046L70.7279 13.0209L73.1894 15.2847L73.8239 14.601L71.3624 12.3372L71.9893 11.6611L74.5272 13.9933L75.1617 13.3096L71.8134 10.2329L68.6487 13.6438L72.0275 16.7433ZM73.6099 18.5741L74.7489 18.3842L76.3771 20.5949L75.842 21.5977L76.5606 22.5777L78.9304 17.9436L78.1354 16.8649L72.9142 17.6245L73.6099 18.5741ZM77.3556 17.9816L77.8066 17.8904L77.5773 18.2855L76.8282 19.6909L75.7579 18.2323L77.3556 17.9816ZM77.5467 24.6668L78.0436 25.6923L81.4148 24.0894L82.3015 25.9202L83.1424 25.5176L80.8797 20.8228L80.0388 21.2254L80.9256 23.0563L77.5467 24.6668ZM80.4822 33.3727L81.3919 33.1524L80.5586 29.7794L81.4683 29.5591L82.2633 32.7953L83.173 32.575L82.378 29.3388L83.2724 29.1185L84.0903 32.4535L85 32.2332L83.9145 27.827L79.3814 28.9286L80.4822 33.3727ZM82.034 39.2602C82.0187 39.7312 82.3703 40.1414 82.8443 40.1566C83.3259 40.1718 83.7081 39.7996 83.731 39.3286C83.7463 38.8576 83.3947 38.4549 82.9131 38.4322C82.4391 38.4094 82.0569 38.7892 82.034 39.2602ZM78.5023 49.5614L79.3967 49.8501L80.4898 46.5455L81.3766 46.8342L80.3293 50.0021L81.216 50.2907L82.2633 47.1229L83.1424 47.4116L82.0646 50.6706L82.959 50.9669L84.3885 46.6595L79.9547 45.2085L78.5023 49.5614ZM80.7574 52.6761C80.1076 52.2963 79.4655 52.5546 78.6017 53.6941C78.4717 53.8536 78.143 54.2791 78.0283 54.4386C77.4244 55.2438 77.218 55.373 76.9275 55.1983C76.66 55.0463 76.6447 54.7045 77.1874 53.7701C77.7378 52.8357 78.2577 52.5318 78.594 52.7217L79.2056 51.6961C78.5252 51.3011 77.5162 51.4606 76.4459 53.2763C75.5516 54.788 75.6051 55.7832 76.4001 56.2466C77.0728 56.6417 77.7302 56.391 78.4488 55.411C78.5481 55.2818 78.8998 54.8184 79.0603 54.6057C79.756 53.6941 79.9624 53.5346 80.2223 53.6865C80.4745 53.8308 80.4822 54.1043 79.9394 55.0387C79.4043 55.9427 78.9839 56.2086 78.6475 56.0111L78.0436 57.0291C78.7087 57.4165 79.7177 57.1734 80.6733 55.5477C81.5524 54.0663 81.4454 53.0712 80.7574 52.6761ZM75.9338 60.4552L73.1359 58.0015L72.3791 58.8523L75.177 61.3061L73.8239 62.833L74.5272 63.4484L77.9977 59.5436L77.3021 58.9283L75.9338 60.4552ZM69.4437 61.6935L70.3075 62.6507L71.2019 61.8531L70.3381 60.8959L69.4437 61.6935ZM66.944 67.2848L65.9502 67.8545C66.0037 67.9533 66.0649 68.0824 66.0802 68.1736C66.1642 68.523 65.9884 68.8497 65.4915 69.1308C64.8876 69.4802 64.4901 69.4346 64.3067 69.1156C64.2837 69.0776 64.2608 69.032 64.2379 68.994C63.8251 68.2647 64.4901 67.2999 65.9731 65.5223L65.5145 64.7322L61.44 67.0796L61.8987 67.8697L64.1385 66.5783C63.16 67.7254 62.7854 68.8573 63.2212 69.6625C63.2441 69.7157 63.3129 69.8297 63.3435 69.8829C63.7104 70.4678 64.4595 70.7869 65.8891 69.9664C67.0739 69.2827 67.3568 68.5154 67.181 67.8393C67.1198 67.6646 67.0281 67.4595 66.944 67.2848ZM61.1037 69.8069C61.0043 69.5486 60.8591 69.2523 60.7062 69.032C60.1023 68.1964 59.1544 67.9913 57.9236 68.4698C56.7922 68.9105 56.1654 69.7005 56.2495 70.6805C56.2724 70.9388 56.3718 71.3035 56.4788 71.5769C56.6088 71.9112 56.7464 72.1771 56.9222 72.4126C57.4649 73.1115 58.4587 73.3774 59.6665 72.914C60.9431 72.4202 61.463 71.5542 61.3483 70.6273C61.2948 70.3311 61.2183 70.1108 61.1037 69.8069ZM59.3302 72.1011C58.6957 72.3442 58.2294 72.2151 57.9313 71.8656C57.8013 71.7137 57.6561 71.4174 57.5643 71.1819C57.4802 70.9692 57.3885 70.6425 57.3656 70.4754C57.3121 69.9664 57.6025 69.541 58.2447 69.2903C58.8792 69.0472 59.3837 69.146 59.6971 69.5714C59.8118 69.7233 59.9417 69.974 60.0411 70.2247C60.1175 70.4222 60.2093 70.7413 60.2322 70.9236C60.2781 71.4098 59.9876 71.8504 59.3302 72.1011ZM54.5371 71.2731C54.0708 70.3615 53.1612 70.012 51.8693 70.3007C50.6844 70.559 49.9429 71.2579 49.8817 72.2379C49.8664 72.4961 49.9123 72.876 49.9734 73.1647C50.0499 73.5141 50.1493 73.7952 50.2869 74.0611C50.7226 74.8284 51.6629 75.2462 52.9242 74.9651C54.2619 74.6688 54.9041 73.8864 54.927 72.9596C54.927 72.6405 54.8888 72.4126 54.82 72.1011C54.7512 71.8276 54.6595 71.5162 54.5371 71.2731ZM52.7178 74.0991C52.0527 74.251 51.6093 74.0459 51.3724 73.6585C51.2654 73.4913 51.166 73.1723 51.1125 72.9292C51.059 72.7013 51.0131 72.367 51.0207 72.1999C51.0437 71.6909 51.3953 71.3111 52.068 71.1591C52.7331 71.0148 53.2147 71.1895 53.4593 71.6529C53.5434 71.82 53.6428 72.0859 53.7039 72.3518C53.7498 72.5569 53.7956 72.8912 53.788 73.0735C53.7498 73.5597 53.4058 73.9471 52.7178 74.0991ZM47.94 72.1999C47.5273 71.3946 46.6558 71.1439 45.5779 71.2275C44.1255 71.3338 43.4452 71.9264 43.3687 72.6709C43.3458 72.8304 43.3916 73.2103 43.4299 73.3318C43.5904 74.0231 44.2172 74.4485 45.4403 74.3574C46.2583 74.2966 46.8698 74.0459 47.145 73.8028C47.1527 73.9471 47.145 74.0535 47.1374 74.1902C47.1068 74.6992 46.7093 75.0411 45.9449 75.0943C45.341 75.1398 44.997 75.0563 44.8746 74.8512C44.8364 74.798 44.8211 74.7448 44.8135 74.7068L43.7662 74.7828C43.7891 74.9119 43.8197 75.0563 43.8732 75.1778C44.1561 75.74 44.7447 76.0818 46.0366 75.9831C47.3056 75.8919 47.9859 75.2614 48.177 74.5473C48.2688 74.1978 48.2917 73.7876 48.2688 73.423C48.2229 72.9672 48.0929 72.5037 47.94 72.1999ZM45.6697 73.5293C44.8899 73.5901 44.6147 73.3622 44.5459 73.1115C44.5077 72.9823 44.4924 72.8152 44.5077 72.7013C44.5383 72.405 44.8823 72.1239 45.6238 72.0707C46.2965 72.0176 46.7475 72.2075 46.9539 72.6253C47.0151 72.7544 47.038 72.8684 47.0686 73.0279C46.9463 73.1571 46.4035 73.4761 45.6697 73.5293ZM37.322 72.4354C36.8481 72.3822 36.42 72.7013 36.3665 73.1723C36.3129 73.6509 36.6646 74.0535 37.1385 74.1067C37.6125 74.1599 38.0406 73.8408 38.0941 73.3622C38.1476 72.8912 37.796 72.4886 37.322 72.4354ZM28.9361 69.2447C27.6213 68.8193 26.7422 68.956 26.1841 69.4574C25.9166 69.6777 25.7637 69.9816 25.6796 70.1715L26.7957 70.5286C26.8645 70.369 26.9639 70.2247 27.1168 70.1336C27.5143 69.898 27.9729 69.9208 28.6533 70.1336C29.2343 70.3159 29.7617 70.6653 29.9299 71.1363C30.0063 71.3642 29.9987 71.6529 29.8687 72.0479C29.7541 72.405 29.5935 72.6481 29.3948 72.7924C29.0355 73.0659 28.4851 73.1115 27.7665 72.8836C27.0403 72.6481 26.6504 72.3138 26.5281 71.972C26.467 71.8124 26.4517 71.6225 26.4899 71.4706L25.3738 71.1135C25.328 71.2807 25.2821 71.6149 25.3356 71.896C25.5038 72.6177 26.0465 73.3394 27.4531 73.7952C28.6762 74.1902 29.5247 74.0459 30.121 73.6433C30.4956 73.4078 30.7861 72.9823 30.9695 72.405C31.1759 71.7745 31.1683 71.2427 30.9848 70.8173C30.7631 70.2019 30.1134 69.6246 28.9361 69.2447ZM22.4308 66.5023C21.4446 65.9857 20.5961 65.8414 19.9387 66.0997C19.4494 66.282 19.0366 66.6618 18.7079 67.2772C18.3869 67.8697 18.2799 68.3939 18.4251 68.9257C18.6238 69.6398 19.1666 70.2323 20.1604 70.7565C21.1541 71.2807 21.9262 71.3794 22.6754 71.1211C23.1875 70.9464 23.5698 70.5666 23.8679 70.012C24.1966 69.3891 24.273 68.8269 24.1278 68.3103C23.9367 67.619 23.3863 67.0113 22.4308 66.5023ZM22.8665 69.4498C22.6677 69.8145 22.3925 70.088 22.102 70.1943C21.7275 70.3159 21.2306 70.2627 20.5961 69.936C19.931 69.5866 19.6635 69.2523 19.5182 68.8421C19.4112 68.5458 19.5259 68.1508 19.717 67.7861C19.9081 67.4291 20.168 67.1252 20.4891 67.0341C20.9095 66.9125 21.3605 66.9657 21.995 67.2999C22.576 67.6114 22.8665 67.9229 23.0194 68.3103C23.1646 68.6674 23.0729 69.0548 22.8665 69.4498ZM15.0769 61.6403L14.5035 62.3772L16.9192 64.2309L14.6411 67.1632L15.5355 67.8469L18.3869 64.1777L15.0769 61.6403ZM10.1845 57.6292C9.66463 57.6368 9.14482 57.8571 8.625 58.3281C8.12811 58.7839 7.84527 59.2398 7.80705 59.7867C7.76118 60.5312 8.0746 61.2605 8.8314 62.0886C9.58819 62.909 10.2838 63.2661 11.0788 63.2661C11.6216 63.2661 12.1108 63.0457 12.5771 62.6127C13.097 62.1341 13.3569 61.6327 13.3951 61.0934C13.441 60.3945 13.1275 59.6348 12.3937 58.8371C11.6445 58.0243 10.8877 57.6064 10.1845 57.6292ZM11.8127 61.7619C11.5069 62.043 11.1553 62.2101 10.8495 62.2101C10.452 62.2025 10.001 61.9898 9.51939 61.4656C9.01486 60.9186 8.86962 60.5084 8.86962 60.0754C8.86962 59.7639 9.1066 59.4221 9.41237 59.1486C9.7105 58.8751 10.0621 58.6776 10.3909 58.7004C10.8342 58.7232 11.2317 58.9283 11.721 59.4525C12.1643 59.9387 12.3325 60.3261 12.3478 60.7439C12.3631 61.1238 12.1491 61.458 11.8127 61.7619ZM8.81611 54.393L7.24901 55.3046L6.33169 53.7473L7.27194 51.7645L6.62982 50.6706L5.62076 52.866C5.40671 52.6078 5.08565 52.4786 4.80281 52.471C4.57348 52.4634 4.29828 52.547 4.00779 52.7141C3.68673 52.8964 3.50326 53.1016 3.40389 53.3522C3.25864 53.7169 3.31215 54.2183 3.67144 54.826L5.34556 57.69L9.37415 55.3502L8.81611 54.393ZM5.57489 56.277L4.51997 54.4842C4.35179 54.1955 4.32886 54.0132 4.4053 53.8536C4.44352 53.7625 4.5429 53.6865 4.64228 53.6333C4.72637 53.5877 4.84103 53.5346 4.9557 53.5422C5.0933 53.5422 5.23089 53.6561 5.39143 53.9144L6.47693 55.7604L5.57489 56.277ZM5.33792 49.8501L6.17115 49.5766L4.60406 44.8211L3.72495 45.1097L4.81045 48.4219L1.01884 46.1049L0.200892 46.3708L1.6839 50.8757L2.57829 50.587L1.59981 47.6091L5.33792 49.8501ZM0.950041 39.3134C0.96533 39.7844 1.35519 40.1642 1.83679 40.1414C2.31074 40.1262 2.66238 39.716 2.64709 39.245C2.63181 38.774 2.24194 38.3942 1.76799 38.417C1.27875 38.4398 0.927108 38.8424 0.950041 39.3134ZM74.3055 38.0447V38.0295C74.3055 30.3036 70.6897 23.3221 64.9029 18.2931C59.1085 13.264 51.1354 10.1645 42.3367 10.1645C33.538 10.1645 25.5649 13.264 19.7705 18.2931C13.9761 23.3221 10.3679 30.3112 10.3679 38.0371C10.3679 45.7631 13.9761 52.7521 19.7705 57.7812C25.5649 62.8102 33.538 65.9097 42.3367 65.9097C51.1354 65.9097 59.1085 62.8178 64.9029 57.7812C70.6974 52.7597 74.3055 45.7707 74.3055 38.0447ZM63.8556 19.4858C67.846 22.9575 70.7203 27.3712 71.9893 32.3015C69.0691 29.2172 65.4227 26.604 61.2566 24.6288C60.2857 22.3498 59.0779 20.253 57.6637 18.4146C56.0278 16.2799 54.1167 14.4871 52.0069 13.1197C56.5323 14.4339 60.5762 16.637 63.8556 19.4858ZM50.0423 13.7806C53.6122 15.7481 56.6852 19.0603 58.8639 23.2614C58.9327 23.3981 59.0015 23.5349 59.0626 23.664C55.9972 22.4257 52.6872 21.5141 49.2014 20.9975C49.0179 20.1847 48.8192 19.4098 48.6051 18.6729C47.8865 16.1736 47.0304 14.1224 46.0213 12.6411C45.899 12.4587 45.769 12.2764 45.6314 12.1093C47.1756 12.4511 48.6433 13.0133 50.0423 13.7806ZM41.2283 12.1549C41.6334 11.8662 41.9927 11.7522 42.3367 11.7522C42.6807 11.7522 43.04 11.8662 43.4452 12.1549C43.7968 12.4056 44.179 12.793 44.5536 13.302C45.211 14.206 45.8608 15.4974 46.4417 17.1004C46.8393 18.1867 47.1985 19.425 47.5273 20.7772C45.8302 20.5873 44.1026 20.4885 42.3444 20.4885C40.5862 20.4885 38.8509 20.5873 37.1615 20.7772C37.2991 20.1999 37.452 19.6377 37.6048 19.1059C38.2928 16.7053 39.1184 14.7909 39.9746 13.5299C40.395 12.8993 40.8308 12.4435 41.2283 12.1549ZM39.042 12.1169C38.9732 12.2004 38.9044 12.284 38.8432 12.3752C38.0559 13.4539 37.3679 14.8669 36.7487 16.5686C36.2747 17.8828 35.8466 19.3718 35.4721 20.9975C31.9939 21.5141 28.6839 22.4257 25.6185 23.664C26.3905 22.1067 27.2849 20.6709 28.2787 19.3718C30.0981 17.0016 32.2614 15.0948 34.6388 13.7806C36.0301 13.0133 37.5055 12.4511 39.042 12.1169ZM20.8178 19.4858C24.0972 16.637 28.1411 14.4339 32.6589 13.1197C29.2954 15.2999 26.4593 18.559 24.3954 22.5397C24.0437 23.2158 23.7227 23.9147 23.4169 24.6288C19.2507 26.604 15.6043 29.2172 12.6842 32.3015C13.9531 27.3712 16.8274 22.9575 20.8178 19.4858ZM13.6856 33.555C20.1374 26.6191 30.5644 22.0687 42.3444 22.0687C54.1244 22.0687 64.5436 26.6115 71.0031 33.555C72.1422 34.7781 72.7231 36.4038 72.7231 38.0371C72.7231 39.6704 72.1422 41.2961 71.0031 42.5192C64.5436 49.4627 54.1167 54.0132 42.3367 54.0056C30.5567 54.0056 20.1374 49.4627 13.6779 42.5192C12.5389 41.2961 11.9579 39.6704 11.9579 38.0371C11.9579 36.4038 12.5389 34.7857 13.6856 33.555ZM20.8178 56.5885C16.8198 53.1167 13.9531 48.703 12.6842 43.7727C15.6043 46.857 19.2507 49.4703 23.4169 51.4455C24.3877 53.7245 25.5955 55.8212 27.0097 57.6596C28.6456 59.7943 30.5567 61.5796 32.6666 62.9546C28.1487 61.6479 24.1049 59.4449 20.8178 56.5885ZM34.6388 62.3013C31.0689 60.3337 27.9959 57.0215 25.8172 52.8205C25.7484 52.6837 25.6796 52.547 25.6108 52.4102C28.6762 53.6485 31.9862 54.5601 35.4721 55.0767C35.6555 55.8896 35.8543 56.6644 36.0683 57.4013C36.7869 59.9007 37.6431 61.9518 38.6521 63.4332C38.7744 63.6155 38.9044 63.7902 39.042 63.965C37.5055 63.6231 36.0301 63.0685 34.6388 62.3013ZM43.4452 63.927C43.04 64.2157 42.6807 64.3296 42.3367 64.3296C41.9927 64.3296 41.6334 64.2157 41.2283 63.927C40.8766 63.6763 40.4944 63.2964 40.1198 62.7799C39.4624 61.8834 38.8127 60.5844 38.2317 58.9815C37.8342 57.8951 37.4749 56.6568 37.1462 55.3046C38.8432 55.4945 40.5709 55.5933 42.3291 55.5933C44.0873 55.5933 45.8226 55.4945 47.512 55.3046C47.3744 55.882 47.2215 56.4441 47.0686 56.9759C46.3806 59.3765 45.555 61.2909 44.6988 62.552C44.286 63.1749 43.8503 63.6383 43.4452 63.927ZM45.6391 63.965C45.7079 63.8814 45.7767 63.7978 45.8378 63.7067C46.6252 62.6279 47.3132 61.2149 47.9324 59.5132C48.4064 58.199 48.8344 56.71 49.209 55.0843C52.6872 54.5601 55.9972 53.6561 59.0626 52.4178C58.2905 53.9752 57.3961 55.4186 56.4024 56.71C54.583 59.0802 52.4197 60.987 50.0423 62.3013C48.6433 63.0685 47.168 63.6307 45.6391 63.965ZM52.0145 62.9546C55.378 60.7743 58.2141 57.5153 60.2781 53.5422C60.6297 52.8661 60.9508 52.1671 61.2566 51.453C65.4227 49.4779 69.0691 46.8646 71.9893 43.7803C70.7203 48.7106 67.8537 53.1243 63.8556 56.5961C60.5762 59.4449 56.5323 61.6403 52.0145 62.9546ZM42.4055 48.9385C51.5558 48.9385 56.3871 46.6139 58.3364 42.466C58.7186 41.6836 58.9632 40.3921 59.0703 39.716H50.6844C50.6614 39.9591 50.5774 40.3086 50.3862 40.5517C49.1937 42.3597 46.2048 42.8991 42.459 42.8991C39.042 42.8991 35.6479 42.0634 34.3407 39.9819C34.012 39.4425 33.8515 38.8196 33.8515 38.0979C33.8515 37.3458 33.9891 36.6925 34.3101 36.1531C35.4491 34.2083 38.4916 33.2132 42.4514 33.2132C46.6558 33.2132 49.1555 34.3755 50.0805 35.5302C50.3557 35.8265 50.5391 36.2063 50.6232 36.4722H59.0091C58.9556 35.9632 58.818 34.9604 58.3593 33.9652C56.7311 30.6758 52.6566 27.1433 42.5049 27.1433C34.5242 27.1433 29.6623 29.354 27.2238 32.6738C26.1383 34.1552 25.5955 36.0164 25.5955 38.0447C25.5955 40.2022 26.1918 42.1166 27.3079 43.6815C29.6241 46.8646 34.4554 48.9385 42.4055 48.9385Z" fill="#18181B"/>
</svg>
