<svg width="91" height="19" viewBox="0 0 91 19" fill="none" xmlns="http://www.w3.org/2000/svg">
<path d="M0.88 0.863999H4L8.296 14.424H8.344L12.736 0.863999H15.784L9.928 18H6.592L0.88 0.863999ZM17.4183 0.863999H20.1543V3.456H17.4183V0.863999ZM17.4183 5.592H20.1543V18H17.4183V5.592ZM25.1993 14.016C25.2793 14.816 25.5833 15.376 26.1113 15.696C26.6393 16.016 27.2713 16.176 28.0073 16.176C28.2633 16.176 28.5513 16.16 28.8713 16.128C29.2073 16.08 29.5193 16 29.8073 15.888C30.0953 15.776 30.3273 15.616 30.5033 15.408C30.6953 15.184 30.7833 14.896 30.7673 14.544C30.7513 14.192 30.6233 13.904 30.3833 13.68C30.1433 13.456 29.8313 13.28 29.4473 13.152C29.0793 13.008 28.6553 12.888 28.1753 12.792C27.6953 12.696 27.2073 12.592 26.7113 12.48C26.1993 12.368 25.7033 12.232 25.2233 12.072C24.7593 11.912 24.3353 11.696 23.9513 11.424C23.5833 11.152 23.2873 10.808 23.0633 10.392C22.8393 9.96 22.7273 9.432 22.7273 8.808C22.7273 8.136 22.8873 7.576 23.2073 7.128C23.5433 6.664 23.9593 6.296 24.4553 6.024C24.9673 5.736 25.5273 5.536 26.1353 5.424C26.7593 5.312 27.3513 5.256 27.9113 5.256C28.5513 5.256 29.1593 5.328 29.7353 5.472C30.3273 5.6 30.8553 5.816 31.3193 6.12C31.7993 6.424 32.1913 6.824 32.4953 7.32C32.8153 7.8 33.0153 8.384 33.0953 9.072H30.2393C30.1113 8.416 29.8073 7.976 29.3273 7.752C28.8633 7.528 28.3273 7.416 27.7193 7.416C27.5273 7.416 27.2953 7.432 27.0233 7.464C26.7673 7.496 26.5193 7.56 26.2793 7.656C26.0553 7.736 25.8633 7.864 25.7033 8.04C25.5433 8.2 25.4633 8.416 25.4633 8.688C25.4633 9.024 25.5753 9.296 25.7993 9.504C26.0393 9.712 26.3433 9.888 26.7113 10.032C27.0953 10.16 27.5273 10.272 28.0073 10.368C28.4873 10.464 28.9833 10.568 29.4953 10.68C29.9913 10.792 30.4793 10.928 30.9593 11.088C31.4393 11.248 31.8633 11.464 32.2313 11.736C32.6153 12.008 32.9193 12.352 33.1433 12.768C33.3833 13.184 33.5033 13.696 33.5033 14.304C33.5033 15.04 33.3353 15.664 32.9993 16.176C32.6633 16.688 32.2233 17.104 31.6793 17.424C31.1513 17.744 30.5593 17.976 29.9033 18.12C29.2473 18.264 28.5993 18.336 27.9593 18.336C27.1753 18.336 26.4473 18.248 25.7753 18.072C25.1193 17.896 24.5433 17.632 24.0473 17.28C23.5673 16.912 23.1833 16.464 22.8953 15.936C22.6233 15.392 22.4793 14.752 22.4633 14.016H25.1993ZM35.6526 0.863999H38.3886V3.456H35.6526V0.863999ZM35.6526 5.592H38.3886V18H35.6526V5.592ZM47.0577 18.336C46.0657 18.336 45.1777 18.176 44.3937 17.856C43.6257 17.52 42.9697 17.064 42.4257 16.488C41.8977 15.912 41.4897 15.224 41.2017 14.424C40.9297 13.624 40.7937 12.744 40.7937 11.784C40.7937 10.84 40.9297 9.968 41.2017 9.168C41.4897 8.368 41.8977 7.68 42.4257 7.104C42.9697 6.528 43.6257 6.08 44.3937 5.76C45.1777 5.424 46.0657 5.256 47.0577 5.256C48.0497 5.256 48.9297 5.424 49.6977 5.76C50.4817 6.08 51.1377 6.528 51.6657 7.104C52.2097 7.68 52.6177 8.368 52.8897 9.168C53.1777 9.968 53.3217 10.84 53.3217 11.784C53.3217 12.744 53.1777 13.624 52.8897 14.424C52.6177 15.224 52.2097 15.912 51.6657 16.488C51.1377 17.064 50.4817 17.52 49.6977 17.856C48.9297 18.176 48.0497 18.336 47.0577 18.336ZM47.0577 16.176C47.6657 16.176 48.1937 16.048 48.6417 15.792C49.0897 15.536 49.4577 15.2 49.7457 14.784C50.0337 14.368 50.2417 13.904 50.3697 13.392C50.5137 12.864 50.5857 12.328 50.5857 11.784C50.5857 11.256 50.5137 10.728 50.3697 10.2C50.2417 9.672 50.0337 9.208 49.7457 8.808C49.4577 8.392 49.0897 8.056 48.6417 7.8C48.1937 7.544 47.6657 7.416 47.0577 7.416C46.4497 7.416 45.9217 7.544 45.4737 7.8C45.0257 8.056 44.6577 8.392 44.3697 8.808C44.0817 9.208 43.8657 9.672 43.7217 10.2C43.5937 10.728 43.5297 11.256 43.5297 11.784C43.5297 12.328 43.5937 12.864 43.7217 13.392C43.8657 13.904 44.0817 14.368 44.3697 14.784C44.6577 15.2 45.0257 15.536 45.4737 15.792C45.9217 16.048 46.4497 16.176 47.0577 16.176ZM55.5963 5.592H58.1883V7.416L58.2363 7.464C58.6523 6.776 59.1963 6.24 59.8683 5.856C60.5403 5.456 61.2843 5.256 62.1003 5.256C63.4603 5.256 64.5323 5.608 65.3163 6.312C66.1003 7.016 66.4922 8.072 66.4922 9.48V18H63.7563V10.2C63.7243 9.224 63.5163 8.52 63.1323 8.088C62.7483 7.64 62.1483 7.416 61.3323 7.416C60.8683 7.416 60.4523 7.504 60.0843 7.68C59.7163 7.84 59.4043 8.072 59.1483 8.376C58.8923 8.664 58.6923 9.008 58.5483 9.408C58.4043 9.808 58.3323 10.232 58.3323 10.68V18H55.5963V5.592ZM69.5935 14.76H72.9295V18H69.5935V14.76ZM76.4412 0.863999H84.6252C86.5132 0.863999 87.9292 1.272 88.8732 2.088C89.8172 2.904 90.2892 4.04 90.2892 5.496C90.2892 6.312 90.1692 6.992 89.9292 7.536C89.6892 8.064 89.4092 8.496 89.0892 8.832C88.7692 9.152 88.4492 9.384 88.1292 9.528C87.8252 9.672 87.6012 9.768 87.4572 9.816V9.864C87.7132 9.896 87.9852 9.976 88.2732 10.104C88.5772 10.232 88.8572 10.44 89.1132 10.728C89.3692 11 89.5772 11.36 89.7372 11.808C89.9132 12.256 90.0012 12.816 90.0012 13.488C90.0012 14.496 90.0732 15.416 90.2172 16.248C90.3772 17.064 90.6172 17.648 90.9372 18H87.7212C87.4972 17.632 87.3612 17.224 87.3132 16.776C87.2812 16.328 87.2652 15.896 87.2652 15.48C87.2652 14.696 87.2172 14.024 87.1212 13.464C87.0252 12.888 86.8492 12.416 86.5932 12.048C86.3372 11.664 85.9852 11.384 85.5372 11.208C85.1052 11.032 84.5452 10.944 83.8572 10.944H79.4412V18H76.4412V0.863999ZM79.4412 8.664H84.3612C85.3212 8.664 86.0492 8.44 86.5452 7.992C87.0412 7.528 87.2892 6.84 87.2892 5.928C87.2892 5.384 87.2092 4.944 87.0492 4.608C86.8892 4.256 86.6652 3.984 86.3772 3.792C86.1052 3.6 85.7852 3.472 85.4172 3.408C85.0652 3.344 84.6972 3.312 84.3132 3.312H79.4412V8.664Z" fill="#18181B"/>
</svg>
